<?xml version="1.0" encoding="UTF-8"?>
<svg id="Layer_1" data-name="Layer 1" xmlns="http://www.w3.org/2000/svg" xmlns:xlink="http://www.w3.org/1999/xlink" viewBox="0 0 512 512">
  <defs>
    <style>
      .cls-1 {
        fill: url(#linear-gradient);
      }

      .cls-2 {
        fill: #f8b846;
      }

      .cls-3 {
        fill: #ffefd0;
      }

      .cls-4 {
        fill: #ffe1a0;
      }

      .cls-5 {
        fill: #fee6b8;
      }

      .cls-6 {
        fill: #fffaf1;
      }

      .cls-7 {
        fill: #fffbf4;
      }

      .cls-8 {
        fill: url(#linear-gradient-2);
      }
    </style>
    <linearGradient id="linear-gradient" x1="368.69" y1="179.62" x2="259.95" y2="288.36" gradientUnits="userSpaceOnUse">
      <stop offset=".02" stop-color="#fcc843"/>
      <stop offset="1" stop-color="#ffd044"/>
    </linearGradient>
    <linearGradient id="linear-gradient-2" x1="154.94" y1="180.8" x2="237.24" y2="326.84" gradientUnits="userSpaceOnUse">
      <stop offset=".02" stop-color="#f8b846"/>
      <stop offset=".72" stop-color="#ed9f31"/>
    </linearGradient>
  </defs>
  <path d="m490.83,257.61c6.07,8.3,9.69,17.54,9.3,28.04.25,11.55-4.78,20.84-12.85,28.57-9.25,8.87-20.61,13.9-32.91,16.97-.55.13-1.16.07-1.91.11l-6.21,3.3c-.54,1.68-1.15,3.35-1.78,4.99-.89,2.32-3.01,4.95-5.23,5.83-6.19,2.46-10.74,6.62-14.74,11.65-10.42,20.13-27.16,31.66-49.16,35.93-3.6.7-5.84,2.65-7.37,5.89-1.29,2.73-2.67,5.5-4.49,7.88-13.97,18.24-32.77,26.12-55.44,25.38-7.67-.25-15.34-1.33-22.99-1.2-7.69.12-15.36,1.73-23.04,1.86-11.61.2-23.22-.33-34.83-.54-.49-.03-.97-.08-1.46-.11-4.41-1.23-8.84-2.47-13.26-3.7-.49-.04-.98-.09-1.47-.12l-6.22,1.73c-8.3,4.59-17.23,7.79-26.52,10.03-3.2.77-6.51,1.38-9.78,1.45-7.05.14-13.4-.97-18.95-6.59-6.69-6.76-12.42-13.94-16.92-21.71l-7.04,4.43c-10.91,6.12-21.78,11.9-34.39,13.28-7.46.83-13.11-1.98-17.28-8.09-1.1-1.6-2.22-3.18-3.54-5.11l-1.92-4.38c-1.33,2.24-2.96,3.46-5.65,3.98-17.22,3.39-31.34-1.96-42.97-14.74-8.89-8.94-11.75-20.28-12.61-32.31-1.03-14.49.65-28.74,4.34-42.77l.34-10.35c-1.27-3.41-1.61-7.16-.35-11.51,1.43-4.97,3.99-9.13,9.33-10.37,2.11-.49,4.24-.88,6.39-1.22l3.43-5.9c-.46-4.26-.91-8.55-1.37-12.86.21-9.33.4-18.65.61-27.98.02-.49.05-.98.08-1.46,1.3-12.49,7.94-21.95,17.54-29.32,5.59-4.28,11.85-7.69,17.83-11.45l2.75-4.73c-3.8-7.91-7.27-15.65-5.79-24.64,3.32-20.24,13.29-35.31,32.94-42.95,9.05-3.52,18.39-5.96,28.19-6.28,3.92-.13,6.92-1.92,8.44-5.48,4.74-11.12,14.1-16.24,24.92-19.32,10.59-3.01,21.28-5.64,31.93-8.44l13.08-4.37c4.26-3.43,8.8-6.57,13.61-9.42,4.68-2.8,9.21-6.38,14.3-7.87,10.8-3.16,21.03.3,30.83,4.98,1.97.93,3.82,2.13,6.13,3.43l11.35,5.37c4.37-1.38,8.89-2.39,13.28-3.75,4.8-1.48,8.9.09,12.73,2.79,3.57,2.52,7.25,3.49,11.34,1.37,3.96-5.43,8.84-9.48,15.78-10.34,5.15-.64,10.16-.75,15.07,1.7,8.91,4.45,18.31,3.39,27.74,2.1,6.37-.87,12.9-2.74,19.21.02,8.19,3.58,14.89,8.95,19.46,16.5l6.55,3.14c3.68-.87,7.14-1.97,10.7-2.47,12.37-1.75,21.28,3.82,27.91,13.79,4.6,6.92,7.63,14.55,9.28,22.65,1.01,4.96,3.38,7.86,8.46,9.34,16.37,4.77,23.79,17.37,27.63,32.84,4.33,17.49,1.01,34.31-4.8,50.81-2.52,7.15-5.53,14.13-8.59,21.08-1.71,3.88-1.49,7.1,1.08,10.6Z"/>
  <g>
    <path class="cls-1" d="m386.23,250.99c1.7-3.86,3.38-7.75,4.79-11.74,3.24-9.19,5.08-18.56,2.67-28.3-2.13-8.62-6.27-15.64-15.39-18.3-2.83-.82-4.15-2.44-4.71-5.2-.92-4.52-2.61-8.76-5.17-12.62-3.7-5.56-8.66-8.66-15.56-7.69-1.97.28-3.91.9-5.95,1.38,2.47,6.12,3.99,12.26,4.45,18.64.08,1,.78,2.72-.93,2.86-1.73.14-1.26-1.64-1.35-2.66-.6-6.65-1.97-13.1-5-19.1-2.52-5.01-6.59-8.46-11.66-10.68-3.52-1.54-7.16-.5-10.71-.02-5.26.73-10.49,1.31-15.45-1.17-2.73-1.36-5.53-1.3-8.4-.94-3.87.48-6.59,2.73-8.79,5.76-2.28,1.18-4.33.64-6.32-.77-2.13-1.5-4.41-2.37-7.09-1.55-3.38,1.04-6.9,1.72-10.14,3.09-6.24,2.63-11.68,6.44-15.61,12.13-4.34,5.79-7.27,12.17-7.77,19.47-.12,1.65-.87,2.24-2.34,2.84-2.99,1.23-6.13,2.43-8.66,4.36-5.21,3.97-7.77,9.73-9.22,15.98-.37,1.57-1.01,2.57-2.55,3.36-2.21,1.13-4.42,2.51-6.18,4.23-5.54,5.42-8.39,12.35-10.24,19.72-.57,2.25-1.48,3.79-3.7,4.92-9.62,4.93-15.38,12.79-17.08,23.53-.02.28-.05.55-.08.82-.06.54-.15,1.08-.2,1.63-.52,6.23-.37,12.4,3.54,17.65,1.41,1.88,2.48,4.34,5.29,4.96,15.06,3.36,29.64,1.79,43.52-4.74,6.46-3.05,11.07-8.14,12.31-15.64.09-.57.95-1.36,1.54-1.46,7.1-1.08,12.84-4.79,18.2-9.26,6.8-5.67,13.6-11.35,20.4-17.03.6-.31,1.2-.63,1.8-.94,6.54-3.35,13.14-4.12,19.86-.51.74.4,1.77.78.87,1.95-.4.12-.79.23-1.19.34-7.18-3.72-14.01-2.87-20.56,1.59-1.04.64-2.17,1.18-3.1,1.96-3.97,3.33-7.98,6.64-11.8,10.14-5.67,5.2-11.46,10.15-18.87,12.74-1.45.5-2.93.9-4.17,1.28.92,2.94,1.79,5.71,2.66,8.49.05.26.1.53.15.8,1.03,4.88.17,9.5-2.13,13.85-.28.53-1.24.69-1.88,1.02-.02-.71-.28-1.53-.01-2.12,2.86-6.24,2.75-12.42-.19-18.58-.13.01-.26.04-.39.07-1.55,4.74-4.71,8.24-8.66,11.08-5.84,4.2-12.55,6.14-19.52,7.46-2.23.42-4.69.82-6.49,2.05-8.23,5.61-11.66,13.92-12.36,23.56-.03.49.64,1.43,1.07,1.48,2.54.31,5.1.38,7.65.61.75.07,1.49.37,2.23.56-.62.56-1.16,1.45-1.87,1.61-6.29,1.42-11.63-1.01-16.65-4.43-.42-.28-.38-1.23-.55-1.87.61.02,1.32-.14,1.83.11,1.24.61,2.4,1.41,3.63,2.16.61-3.11.97-5.95,1.74-8.68,1.69-5.95,4.64-11.18,9.52-15.15.01-.24.02-.47.03-.7-6.72.59-13.36.3-19.84-1.78-.98-.31-1.8-.77-2.52.62-3.89,7.55-6.21,15.47-5.66,24.02.8,12.57,6.64,22.66,15.36,31.47,3.09,3.13,6.62,3.75,10.55,3.67,1.83-.03,3.67-.38,5.46-.81,5.17-1.24,10.14-3.03,14.77-5.58-2.7-3.17-5.49-6-7.75-9.21-2.2-3.1-3.91-6.55-5.7-9.92-.27-.5.19-1.38.32-2.09.56.36,1.2.64,1.66,1.11.36.36.48.96.72,1.45,3.47,6.92,7.74,13.19,14.22,17.69.27.02.54.05.81.07,2.47.69,4.93,1.37,7.39,2.06.27.02.54.04.81.06,6.47.12,12.94.41,19.41.3,4.28-.07,8.55-.97,12.83-1.04,4.27-.06,8.54.53,12.81.67,12.63.42,23.11-3.98,30.89-14.14,1.01-1.33,1.78-2.87,2.5-4.39.85-1.8,2.1-2.89,4.11-3.28,12.25-2.38,21.58-8.8,27.39-20.02,2.23-2.8,4.77-5.12,8.21-6.49,1.23-.49,2.41-1.95,2.92-3.25,1.04-2.7,1.93-5.54,2.34-8.4,1.34-9.35-.18-18.48-2.49-27.54-.25-.96-.06-2.93.21-2.99,1.85-.37,1.67,1.38,1.91,2.43,1.16,5.09,2.2,10.2,3.46,16.15.47-.84.75-1.37,1.04-1.88,1.36-2.43,2.69-4.88,4.13-7.26.32-.53,1.03-.82,1.57-1.22.17.69.72,1.59.47,2.05-1.75,3.13-3.43,6.36-5.62,9.18-1.22,1.55-1.85,2.87-1.86,4.84-.02,3.3-.45,6.61-.72,10.02.42-.02.76.02,1.07-.06,6.85-1.71,13.19-4.51,18.34-9.45,4.49-4.31,7.3-9.48,7.16-15.92.21-5.85-1.81-10.99-5.19-15.62-1.42-1.95-1.55-3.74-.6-5.91Zm-15.99-52.53c5.03,3.78,7.81,9.05,9.37,14.97.76,2.88.97,5.91,1.41,8.87.11.72.16,1.45.27,2.5,1.07-.77,1.83-1.48,2.71-1.88.56-.25,1.32-.04,1.99-.04-.21.62-.22,1.49-.65,1.82-3.67,2.81-6.49,6.2-7.99,10.64-.15.46-.97.69-1.48,1.03-.22-.58-.77-1.28-.61-1.71.66-1.77,1.58-3.44,2.32-5.19.44-1.03,1-2.12,1.03-3.2.27-8.03-1.14-15.65-6.14-22.22-1.07-1.39-2.52-2.49-3.68-3.82-.39-.45-.45-1.21-.66-1.83.72.01,1.65-.28,2.11.06Zm-57.31,32.43c-.26.45-1.01.63-1.53.93-.21-.63-.74-1.38-.56-1.86,1.44-3.83,4.26-6.09,8.31-6.66,3.81-.54,7.44.3,10.99,1.65,1.46.55,2.97.98,4.46,1.46,5.04,1.42,10.08,2.38,15.23.47.48-.18,1.17.24,1.76.38-.31.58-.53,1.58-.95,1.68-2.43.56-4.9.92-7.36,1.35-.41-.02-.82-.04-1.22-.05l-4.11-.42c-4.76-1.39-9.45-3.06-14.29-4.09-5.34-1.14-8.07.46-10.73,5.16Zm-1.76-67.38c.34-.26,1.69.2,2.11.72,2.08,2.51,4.06,5.1,5.93,7.77.65.93,1.18,1.52,2.41,1.8,5.66,1.28,9.72,4.98,13.28,9.32.17.21.27.47.47.84-.26.34-.52.97-.81.99-.51.02-1.17-.2-1.55-.55-1.7-1.56-3.23-3.33-5-4.8-2.43-2.02-5.16-3.51-8.44-3.8-.58-.05-1.25-.66-1.64-1.19-2.12-2.9-4.15-5.86-6.26-8.77-.55-.76-1.61-1.47-.5-2.33Zm-34.87,13.73c1.18-.26,2.42-.38,3.63-.38.39,0,1.05.56,1.08.9.02.38-.45,1.03-.85,1.17-.89.3-1.87.32-2.8.53-6.93,1.54-11.7,5.49-13.79,12.42l-2.07.99c-.06-.74-.22-1.48-.15-2.2.06-.58.38-1.14.58-1.72,3.08-6,7.65-10.19,14.37-11.71Zm-59.81,65.29c3.72-3.99,8.19-6.73,13.62-7.74.47-.09.95-.13,1.41-.22.2-.04.38-.15.62-.25,0-4.02-.39-7.93.1-11.72.68-5.32,3.53-9.69,7.59-13.18.52-.46,1.49-.39,2.26-.56-.22.72-.22,1.69-.7,2.14-6.93,6.55-8.91,14.42-6.4,23.51.42,1.53.25,2.37-1.55,2.39-5.78.07-10.47,2.63-14.58,6.49-.25.24-.45.63-.73.7-.63.15-1.31.14-1.97.2.1-.6-.02-1.39.33-1.76Zm77.82-29.7c3.31,1.72,6.15,3.68,6.62,7.63.02.4.04.81.06,1.21-.31,5.38-5.08,10.81-10.35,11.75-.4.07-.89.21-1.21.06-.6-.28-1.1-.75-1.65-1.14.53-.41,1.02-1.11,1.58-1.16,3.95-.37,6.48-2.76,8.26-5.95,2.41-4.33.75-8.19-4.09-10.09-9.71-3.82-18.16-1.19-24.07,7.51-.42.62-.78,1.27-1.16,1.91-2.19,4.31-4.39,8.61-6.54,12.93-.76,1.53-1.41,3.1-2.07,4.68-3.02,7.29-9.46,9.54-16.37,11.04-2.06.45-4.15.7-6.32,1.06-.48,4.42-1.62,8.58-3.96,12.37-4.82,7.83-16.23,11.38-24.5,7.42-1.61-.78-2.97-2.13-4.31-3.36-.31-.28-.06-1.17-.06-1.78.55.07,1.31-.06,1.61.25,5.4,5.52,11.68,4.85,18.04,2.42,6.24-2.4,8.85-7.76,10.32-13.84.25-1.06.55-2.17.47-3.23-.17-2.27,1.13-2.56,2.95-2.91,4.32-.86,8.66-1.78,12.85-3.1,4.17-1.31,6.09-4.95,7.84-8.69,2.66-5.68,5.34-11.35,8.35-16.85,2.53-4.64,6.34-8.16,11.13-10.54,4.01-1.53,8.11-1.83,12.26-.72,1.65.45,2.48-.11,3.18-1.57,3.55-7.41,2.82-15.17-2.16-20.64-2.4,1.37-3.92,3.6-5.46,5.81-.59.86-.81,2.75-2.3,1.9-1.61-.92-.15-2.18.43-3.1,2.94-4.68,6.7-8.36,12.47-9.06,1.7-.21,3.51.17,5.24.48.45.08.78.87,1.16,1.34-.55.27-1.1.75-1.66.77-2.03.08-4.06-.02-6.08.02-.43.01-.86.31-1.5.56,5.66,8.01,5.7,16.2,1,24.61Zm-26.75,76.86c2.91-7.48,7.92-13.17,14.95-17,2.09-1.14,4.87-1.43,6.41-3.01,1.43-1.48,1.56-4.18,2.39-6.29.34-.85,1.01-1.58,1.53-2.36,1.13.19,1.64.8,1.36,1.96h-.01c-2.46,4.73-2.76,9.59-1,14.64.25.72-.12,1.66-.21,2.49-.65-.54-1.65-.97-1.89-1.66-.7-1.96-1.1-4.02-1.65-6.2-7.18,2.37-12.99,6.62-17.04,13.12-1.04,1.67-1.74,3.55-2.71,5.27-.4.71-1.3,1.87-1.64,1.77-1.54-.49-.86-1.76-.49-2.73Zm53.88,28.62c-2.59.56-5.22.91-7.77,1.32-3.59-1.4-5.1.67-6.73,3.32-3.17,5.1-7.83,8.48-13.6,10.25-.94.29-2.15.91-2.54-.53-.1-.37,1.02-1.36,1.74-1.61,6.29-2.19,11.07-6.15,14.02-12.12.89-1.79,1.88-2.14,3.81-2.04,3.03.15,6.09-.28,9.14-.49.47-.04.95-.39,1.38-.33.6.09,1.16.43,1.74.67-.39.54-.7,1.46-1.19,1.56Zm-6.56-25.62c-2.32.36-4.75.26-7.11.11-6.72-.44-13.39-.74-19.62,2.56-3.46,1.84-5.94,4.46-7.22,8.25-1.81,5.32-5.96,8.52-10.6,11.18-1.36.77-2.84,1.33-4.26,1.99-.11.41-.21.83-.31,1.25-.09,5.55-3.04,9.57-7.31,12.59-7.83,5.56-16.28,6.54-25.18,2.68-.31-.13-.73-.19-.91-.43-.45-.61-.79-1.3-1.18-1.96.72-.03,1.55-.3,2.12-.03,9.44,4.43,20.22,2.48,26.83-4.89,2.19-2.44,3.41-5.33,3.41-8.55,0-1.79.66-2.5,2.18-3.09,4.31-1.69,8.22-4.03,11.03-7.83.81-1.08,1.58-2.28,1.98-3.55,2.06-6.38,6.88-9.65,12.89-11.46,4.82-1.46,9.79-1.62,14.8-1.15,2.43.22,4.89.11,7.34.15,7.73-1.45,13.63-5.55,16.96-12.69,2.27-4.86,1.18-9.49-2.63-13.34-.96-.96-2.11-1.73-3.06-2.71-.34-.35-.33-1.04-.48-1.57.61-.08,1.41-.43,1.8-.18,5.65,3.74,9.54,9.89,7.05,16.9-.94,2.64-2.65,5.01-4.01,7.51-4.08,4.08-8.68,7.34-14.51,8.26Zm19.79,20.8c-.29.53-.51,1.18-.95,1.55-.5.42-1.21.59-1.83.86-.04-.71-.37-1.59-.06-2.1,3.35-5.6,4.49-11.67,4.05-18.08-.14-2.02-.66-4.02-1.01-6.03-.16-.73-.45-1.46-.44-2.19,0-.58.38-1.15.59-1.73.54.37,1.46.66,1.57,1.13.68,3.12,1.2,6.27,1.75,9.42.1.54.11,1.08.16,1.63-.21,5.44-1.17,10.69-3.83,15.54Z"/>
    <path class="cls-8" d="m258.52,156.07c-5.46-2.6-11.15-4.53-17.17-2.77-2.85.83-5.36,2.82-7.97,4.38-7.98,4.76-14.74,10.84-19.63,18.8-1.51,2.44-2.58,5.15-3.8,7.61,2.55,1.09,4.64,1.9,6.62,2.91.47.24.59,1.15.88,1.76-.66.06-1.32.2-1.97.15-.37-.03-.73-.34-1.09-.53-2.94-1.61-6.07-1.91-9.32-1.38-1.87.58-3.72,1.22-5.61,1.69-.77.2-1.64.02-2.47.01.48-.69.81-1.69,1.47-2,1.71-.81,3.55-1.72,5.37-1.83,2.95-.17,4.24-1.49,5.21-4.21,2.04-5.73,5.97-10.33,9.89-14.89-.14-.13-.28-.27-.42-.4-5.93,1.56-11.89,3.02-17.79,4.7-6.03,1.71-11.24,4.57-13.88,10.76-.85,1.98-2.52,2.98-4.71,3.05-5.45.18-10.65,1.54-15.7,3.5-10.94,4.26-16.5,12.66-18.35,23.93-.82,5.01,1.11,9.32,3.23,13.73,2.24.19,4.61.39,6.99.59,4.83.86,9.35,2.59,13.59,5.05.36.3.82.53,1.04.91.33.55.48,1.2.71,1.8-.71,0-1.49.19-2.1-.05-1.03-.42-1.96-1.11-2.93-1.69-5.55-3.13-11.58-4.2-17.86-4.18-.33,0-.71.04-.97.2-3.33,2.1-6.82,3.99-9.93,6.38-5.35,4.11-9.05,9.37-9.78,16.33-.01.27-.03.54-.04.82-.11,5.19-.23,10.39-.34,15.58.26,2.4.51,4.8.76,7.17,3.17.6,6.45,1.19,8.46-2.5.06-.11.19-.23.31-.26.7-.16,1.41-.3,2.12-.44-.22.73-.22,1.7-.7,2.17-2.6,2.59-4.54,5.29-3.19,9.25.15.43-.42,1.11-.66,1.67-.49-.36-1.31-.65-1.42-1.11-.34-1.36-.65-2.81-.5-4.18.16-1.51-.32-2.13-1.69-1.95-2.75.35-5.51.69-8.2,1.31-2.97.69-4.4,3.02-5.2,5.78-1.6,5.54,1.43,9.37,4.82,13.07,2.07,1.81,4.18,3.59,6.19,5.46.54.51.8,1.31,1.18,1.98-.76.01-1.68.3-2.27-.02-3.72-1.98-6.51-5.03-9.02-8.36-.3.02-.59.03-.89.05-2.05,7.82-2.99,15.76-2.42,23.83.48,6.7,2.07,13.02,7.03,18,6.48,7.12,14.34,10.1,23.94,8.21,1.5-.29,2.41-.97,3.15-2.21,3.86-6.5,3.24-13.19.86-19.94-.14-.4-.75-.68-1.19-.94-1.81-1.07-3.63-2.11-5.44-3.17-.14-.67-.28-1.33-.42-2,.55-.02,1.1-.04,1.65-.05.78.59,1.56,1.18,2.33,1.77,3.32,2.34,6.8,1.84,10.34.62.62-.22,1.33-.19,2-.28.01.55.02,1.1.03,1.65-2.2.81-4.41,1.61-6.79,2.48,2.46,7.66,2.66,15.34-2.3,22.3.74,1.07,1.36,1.95,1.97,2.85,2.33,3.39,5.48,4.96,9.63,4.5,7.03-.77,13.09-3.99,19.16-7.4-.32-.66-.61-1.28-.92-1.88-7.31-13.88-7.88-28.05-1.35-42.31,1.4-3.07,2.16-5.5-.55-8.05-.47-.45-.7-1.15-1.05-1.74-.07-.26-.12-.53-.21-.78-3.52-9.47-3.01-18.9.61-28.16,3.19-8.14,9.1-13.95,16.63-18.23.65-.37,1.37-.96,1.62-1.62,1.73-4.43,3.34-8.91,4.99-13.37,3.37-5.66,7.2-10.89,13.43-13.82-.18-.32-.23-.53-.37-.66-.34-.33-.7-.65-1.08-.93-2.86-2.15-6.12-3.19-9.64-3.58-1.1-.13-2.18-.5-3.27-.76-.08-1.44.79-1.66,1.98-1.63,5.01.14,9.47,1.77,13.47,5,.37-.89.71-1.62.98-2.37,3.23-8.91,8.64-15.73,17.94-18.89.46-.16.92-.9,1.03-1.44,2.75-14.27,10.24-25.08,23.16-31.98.38-.2.69-.51,1.22-.9-1.29-.73-2.32-1.39-3.42-1.92Zm-107.16,140.27c-2.77,3.89-2.51,7.89-.82,12.07.24.62-.15,1.49-.25,2.24-.6-.42-1.54-.72-1.74-1.28-.79-2.23-1.35-4.54-2-6.81.4-2.86,1.24-5.36,2.96-7.49.36-.44,1.23-.46,1.87-.68.01.66.29,1.52-.02,1.95Zm24.64-103.69c-4.11,2.87-5.88,6.99-6.54,11.79-.1.72-.66,1.73-1.26,1.97-2.14.84-3.68,2.23-4.96,4.09-.32.46-1.16.57-1.75.85-.06-.72-.44-1.71-.11-2.1,1.31-1.53,2.71-3.04,4.32-4.23.93-.69,1.54-1.17,1.73-2.42.76-4.92,3.04-9,7.24-11.86,1.18-.8,2.28-.55,2.39.8-.25.28-.59.79-1.06,1.11Z"/>
    <path class="cls-6" d="m145.3,317.65c.55-.02,1.11-.04,1.66-.06-.55.02-1.11.04-1.66.06Z"/>
    <path class="cls-6" d="m161.62,319.71c0,.55.02,1.1.03,1.65,0-.55-.02-1.1-.03-1.65Z"/>
    <path class="cls-3" d="m309.22,249.95c-.39.11-.79.23-1.18.34.39-.11.79-.23,1.18-.34Z"/>
    <path class="cls-7" d="m252.19,286.48c.05.27.1.54.15.8-.05-.27-.1-.54-.15-.8Z"/>
    <path class="cls-4" d="m182.17,272.52c-.03.27-.05.55-.08.82.03-.27.05-.55.08-.82Z"/>
    <path class="cls-7" d="m209.31,302.07c0-.23.01-.47.02-.7.19.09.37.18.56.28l-.58.43Z"/>
    <path class="cls-6" d="m230.93,352.02c.27.02.55.05.82.07-.27-.02-.55-.05-.82-.07Z"/>
    <path class="cls-5" d="m239.13,354.14c.27.02.54.04.81.06-.27-.02-.54-.04-.81-.06Z"/>
    <path class="cls-2" d="m219.72,165.03c-.27.24-.53.49-.8.73-.14-.13-.27-.27-.41-.41.32-.16.64-.32.96-.48l.06.18.19-.03Z"/>
    <path class="cls-7" d="m248.13,281.45c-.13.01-.27.04-.39.08.13-.03.26-.05.39-.08Z"/>
    <path class="cls-4" d="m219.47,164.88c.1-.04.19-.07.29-.11-.01.09-.03.18-.04.26,0,0-.19.02-.19.02l-.06-.18Z"/>
    <path class="cls-7" d="m265.76,318.03c.1-.42.21-.84.31-1.25-.1.42-.21.84-.31,1.25Z"/>
    <path class="cls-5" d="m300.99,221.66c-.02-.4-.04-.8-.05-1.21.02.4.04.8.05,1.21Z"/>
    <path class="cls-5" d="m342.06,230.23l1.22.05-1.22-.05Z"/>
  </g>
</svg>